<svg width="37" height="37" viewBox="0 0 37 37" fill="none" xmlns="http://www.w3.org/2000/svg">
<path d="M37 13.8722V23.5216L24.2712 21.9592L20.0182 21.4368L18.5189 25.0562L13.5895 36.9571L5.19195 32.2069L12.7767 21.9542L0 23.5216V13.8722L13.0897 15.48L5.11371 4.82601L13.486 0.0277254L18.4811 11.9009L23.4105 0L31.808 4.75279L23.8674 15.4851L37 13.8722Z" fill="white"/>
<path d="M25.5806 35.1016C27.9374 35.1016 29.8479 33.191 29.8479 30.8343C29.8479 28.4775 27.9374 26.5669 25.5806 26.5669C23.2238 26.5669 21.3132 28.4775 21.3132 30.8343C21.3132 33.191 23.2238 35.1016 25.5806 35.1016Z" fill="white"/>
</svg>
